<svg width="500" height="500" viewBox="0 0 500 500" fill="none" xmlns="http://www.w3.org/2000/svg">
<rect width="500" height="500" fill="black"/>
<path d="M114.457 371.8C109.857 371.8 104.957 370.9 99.7574 369.1C94.7574 367.3 90.5574 363.6 87.1574 358C83.7574 352.4 82.0574 344 82.0574 332.8C82.0574 325 82.9574 317.3 84.7574 309.7C86.5574 301.9 89.1574 295.4 92.5574 290.2C96.1574 285 100.257 282.4 104.857 282.4C107.257 282.4 110.057 283.2 113.257 284.8C109.657 294 106.957 302.6 105.157 310.6C103.357 318.6 102.457 326 102.457 332.8C102.457 341.8 104.057 348.8 107.257 353.8C110.457 358.8 115.157 361.3 121.357 361.3C126.557 361.3 131.157 359.1 135.157 354.7C139.357 350.3 143.657 342 148.057 329.8C151.257 321 154.557 310.4 157.957 298C161.557 285.4 165.057 272 168.457 257.8C172.057 243.4 175.457 229.2 178.657 215.2C181.857 201 184.757 187.9 187.357 175.9C189.957 163.9 191.957 153.9 193.357 145.9C183.557 145.9 175.257 146.1 168.457 146.5C161.857 146.9 155.857 147.5 150.457 148.3C145.057 149.1 139.157 150.3 132.757 151.9C133.757 145.1 138.057 139.9 145.657 136.3C153.457 132.5 165.457 130.6 181.657 130.6C189.657 130.6 197.757 131 205.957 131.8C214.157 132.6 221.657 133.5 228.457 134.5C235.457 135.3 240.757 136.1 244.357 136.9C242.157 140.7 238.557 143.1 233.557 144.1C228.557 145.1 224.457 145.6 221.257 145.6C217.257 145.6 213.457 145.7 209.857 145.9C206.457 145.9 203.157 145.9 199.957 145.9C202.157 147.5 203.757 149.7 204.757 152.5C205.757 155.3 206.257 157.8 206.257 160C206.257 162.6 205.557 168.4 204.157 177.4C202.757 186.2 200.757 196.9 198.157 209.5C195.557 222.1 192.457 235.5 188.857 249.7C185.257 263.9 181.357 277.8 177.157 291.4C172.957 305 168.457 317.1 163.657 327.7C158.457 339.7 153.157 348.8 147.757 355C142.557 361.4 137.157 365.8 131.557 368.2C126.157 370.6 120.457 371.8 114.457 371.8ZM261.546 372.1C255.346 372.1 249.446 371.2 243.846 369.4C238.246 367.8 233.446 364.2 229.446 358.6C231.446 349 233.846 338.7 236.646 327.7C239.646 316.5 242.846 305.1 246.246 293.5C249.646 281.7 253.046 270.2 256.446 259C260.046 247.6 263.446 237 266.646 227.2C269.846 217.4 272.746 208.8 275.346 201.4C277.946 194 279.946 188.4 281.346 184.6C281.946 183 282.946 180.7 284.346 177.7C285.746 174.5 287.446 171.3 289.446 168.1C291.446 164.9 293.746 162.2 296.346 160C298.946 157.6 301.746 156.4 304.746 156.4C307.546 156.4 310.346 157.4 313.146 159.4C306.946 173.8 300.646 189.7 294.246 207.1C288.046 224.5 282.046 242.5 276.246 261.1C270.446 279.5 265.146 297.5 260.346 315.1C255.546 332.7 251.546 348.7 248.346 363.1C251.146 363.5 253.446 363.8 255.246 364C257.246 364.2 259.246 364.3 261.246 364.3C274.046 364.3 286.346 361.3 298.146 355.3C310.146 349.5 321.246 341.5 331.446 331.3C341.846 320.9 350.946 309.1 358.746 295.9C366.546 282.5 372.546 268.4 376.746 253.6C381.146 238.6 383.346 223.7 383.346 208.9C383.346 192.7 380.746 179.4 375.546 169C370.346 158.4 363.146 150.6 353.946 145.6C344.746 140.6 334.046 138.1 321.846 138.1C308.846 138.1 297.146 140.7 286.746 145.9C276.346 151.1 268.146 158.1 262.146 166.9C256.146 175.7 253.146 185.6 253.146 196.6C253.146 199 253.246 201.1 253.446 202.9C253.846 204.7 254.246 206.3 254.646 207.7C248.046 207.7 243.346 206.1 240.546 202.9C237.946 199.5 236.646 195.5 236.646 190.9C236.646 183.9 239.046 176.9 243.846 169.9C248.846 162.7 255.646 156.1 264.246 150.1C273.046 144.1 283.146 139.3 294.546 135.7C305.946 131.9 318.046 130 330.846 130C348.846 130 363.246 133.7 374.046 141.1C385.046 148.3 393.046 158.1 398.046 170.5C403.046 182.9 405.546 196.8 405.546 212.2C405.546 229.6 402.846 246.3 397.447 262.3C392.046 278.1 384.546 292.7 374.946 306.1C365.546 319.3 354.746 330.9 342.546 340.9C330.346 350.7 317.246 358.3 303.246 363.7C289.446 369.3 275.546 372.1 261.546 372.1Z" fill="white"/>
</svg>
