<svg width="24" height="27" viewBox="0 0 24 27" fill="none" xmlns="http://www.w3.org/2000/svg">
<path fill-rule="evenodd" clip-rule="evenodd" d="M2.43516 17.6084C1.88288 17.6084 1.43516 18.0561 1.43516 18.6084V19.2225C1.43516 19.2661 1.43795 19.309 1.44336 19.3511H1.06543C0.513145 19.3511 0.0654297 19.7988 0.0654297 20.3511V25.9997C0.0654297 26.552 0.513146 26.9997 1.06543 26.9997H13.1524C13.7047 26.9997 14.1524 26.552 14.1524 25.9997V20.3511C14.1524 19.7988 13.7047 19.3511 13.1524 19.3511H12.7748C12.7802 19.309 12.783 19.2661 12.783 19.2225V18.6084C12.783 18.0561 12.3353 17.6084 11.783 17.6084H2.43516Z" fill="black"/>
<g clip-path="url(#clip0_652_266)">
<path d="M19.6479 -0.000620623C17.9941 1.19831 6.45653 9.73924 7.72473 13.3597C7.8482 13.755 8.01625 14.1219 8.20398 14.4756L12.5191 8.29718C12.6698 8.08122 12.9998 7.85474 13.2555 7.7918C13.5113 7.72885 13.5963 7.85285 13.4456 8.06882L7.18544 17.0324C6.95915 17.3564 7.08684 17.5424 7.47054 17.4478C7.85425 17.3532 8.34881 17.0139 8.57542 16.6897L9.95365 14.7163C11.3211 13.7755 12.6686 12.8077 13.9875 11.8157C15.6807 10.5559 16.9198 9.32693 17.8235 8.1654L14.541 10.4179L18.9034 6.54423C19.1441 6.11094 19.3403 5.69148 19.4977 5.28801L16.8594 7.09845L19.8766 4.06991C20.3831 1.88703 19.8096 0.361221 19.6479 -0.000620623Z" fill="black"/>
</g>
<defs>
<clipPath id="clip0_652_266">
<rect width="20.1908" height="7.60126" fill="white" transform="translate(3 11.4238) rotate(-34.4584)"/>
</clipPath>
</defs>
</svg>
