<svg width="149" height="21" viewBox="0 0 149 21" fill="none" xmlns="http://www.w3.org/2000/svg">
<path d="M4.14227 9.49634C1.69823 7.96062 1.00013 7.00079 1 5.2731C0.999896 3.9265 1.34906 1.24183 5.41411 1.00704C13.9212 0.750945 13.8053 7.5622 13.8053 8.67604C13.8053 11.1264 12.8137 13.5302 11.0712 15.9364C10.2089 17.127 9.45022 18.5933 6.87673 19.6392C2.86845 21.2681 1.5828 16.8777 1.5638 16.4608C1.43407 13.6147 3.42498 11.3551 10.6362 9.11973C11.6203 8.81468 19.4834 7.06064 22.2991 7.57669C24.3941 7.96066 26.14 8.92045 26.4891 11.0321C26.4891 14.1035 24.5267 15.0036 24.045 13.1437C23.3466 10.4473 30.05 2.44846 34.6 1.69512C39.15 0.941782 39.2428 8.812 39.5 9.57317C40.9871 13.975 45.3513 2.81669 51.2802 4.31331C54.7821 5.19731 54.2888 11.1229 59.311 10.2642C64.3431 9.40381 68.4683 6.94961 75.0237 7.19276C78.4799 7.32096 85.8304 8.35508 89.3396 8.34455C96.913 8.32182 104.682 7.78197 112.036 7.38472C122.511 6.81886 123.209 7.19276 134.033 6.61686C142.762 6.04097 147.404 3.39661 148 2.77755" stroke="url(#paint0_linear_686_83)" stroke-linecap="round"/>
<defs>
<linearGradient id="paint0_linear_686_83" x1="71.7" y1="7.48781" x2="148.584" y2="-7.02909" gradientUnits="userSpaceOnUse">
<stop/>
<stop offset="1" stop-opacity="0"/>
</linearGradient>
</defs>
</svg>
