<svg width="135" height="99" viewBox="0 0 135 99" fill="none" xmlns="http://www.w3.org/2000/svg">
<path d="M91.8895 20.9443C92.4819 19.9078 93.8444 19.6178 94.8075 20.323L128.595 45.0642C131.329 47.0663 131.322 51.1509 128.58 53.1431L94.4937 77.915C93.6505 78.5278 92.478 78.3902 91.7995 77.5988L88.4549 73.6972C87.6789 72.792 87.8623 71.4131 88.848 70.7422L118.281 50.7088C119.424 49.9311 119.452 48.2564 118.336 47.4408L90.4434 27.0549C89.6214 26.4542 89.3819 25.3318 89.8871 24.4478L91.8895 20.9443Z" fill="#333333"/>
<path d="M42.2355 77.0557C41.6431 78.0922 40.2806 78.3822 39.3175 77.677L5.52999 52.9358C2.79589 50.9337 2.80326 46.8491 5.54457 44.8569L39.6313 20.085C40.4745 19.4722 41.647 19.6098 42.3255 20.4012L45.6701 24.3028C46.4461 25.208 46.2627 26.5869 45.277 27.2578L15.8437 47.2912C14.701 48.0689 14.6729 49.7436 15.7889 50.5592L43.6816 70.9451C44.5036 71.5458 44.7431 72.6682 44.2379 73.5522L42.2355 77.0557Z" fill="#333333"/>
<rect x="72.8818" width="7.5" height="100" rx="2" transform="rotate(15 72.8818 0)" fill="#333333"/>
</svg>
