<svg width="130" height="150" viewBox="0 0 130 150" fill="none" xmlns="http://www.w3.org/2000/svg">
<g filter="url(#filter0_d_382_169)">
<g clip-path="url(#clip0_382_169)">
<path d="M101.901 64.3024C95.2203 91.1024 68.0675 107.394 41.3058 100.713C14.505 94.0325 -1.78646 66.8809 4.89441 40.1196C11.5749 13.3195 38.6882 -2.97188 65.489 3.70898C92.2507 10.3504 108.582 37.502 101.901 64.3024Z" fill="url(#paint0_linear_382_169)"/>
<path d="M72.7433 39.0863C71.9524 32.2859 66.039 30.0755 58.5594 29.5634L58.4094 20.075L52.6604 20.1717L52.8255 29.4086C51.3087 29.4438 49.7534 29.4893 48.2084 29.5732L48.0331 20.2979L42.2841 20.3946L42.4622 29.8342C41.197 29.8845 39.9702 29.9244 38.7819 29.9541L38.7716 29.9156L30.8103 30.0689L30.9332 36.2233C30.9332 36.2233 35.1832 36.0745 35.1166 36.1336C37.4546 36.0846 38.2314 37.444 38.4638 38.6192L38.6358 49.4217C38.8001 49.4189 39.0028 49.4058 39.2647 49.4594C39.0619 49.4725 38.8592 49.4856 38.6461 49.4601L38.9003 64.5718C38.8063 65.2982 38.3816 66.4845 36.7775 66.5018C36.8367 66.5685 32.5942 66.5915 32.5942 66.5915L31.5604 73.5096L39.0777 73.3928C40.4791 73.3886 41.8316 73.3562 43.1945 73.3622L43.365 82.9276L49.114 82.8309L48.9641 73.3425C50.5297 73.3355 52.0953 73.3285 53.5736 73.3036L53.7517 82.7432L59.5007 82.6465L59.3301 73.0811C69.0308 72.3381 75.7727 69.7891 76.4214 60.6642C76.9747 53.3385 73.47 50.1114 67.9402 48.8707C71.3028 47.1034 73.3293 44.0442 72.7433 39.0863ZM65.0299 59.7153C65.1693 66.8554 52.885 66.2695 48.9813 66.3255L48.7583 53.6392C52.6619 53.5832 64.9234 52.2365 65.0299 59.7153ZM62.0518 41.8274C62.152 48.3592 51.9261 47.758 48.6794 47.803L48.486 36.305C51.7326 36.26 61.9282 35.0544 62.0518 41.8274Z" fill="white"/>
</g>
<path d="M93.4899 36L92.7803 38.4149V108.489L93.4899 109.198L125.98 89.971L93.4899 36Z" fill="#343434"/>
<path d="M93.4904 36L61 89.971L93.4904 109.198V75.1864V36Z" fill="#8C8C8C"/>
<path d="M93.4897 115.357L93.0898 115.845V140.807L93.4897 141.976L125.999 96.1396L93.4897 115.357Z" fill="#3C3C3B"/>
<path d="M93.4904 141.976V115.356L61 96.1392L93.4904 141.976Z" fill="#8C8C8C"/>
<path d="M93.4902 109.198L125.98 89.9712L93.4902 75.1866V109.198Z" fill="#141414"/>
<path d="M61 89.9712L93.4898 109.198V75.1866L61 89.9712Z" fill="#393939"/>
</g>
<defs>
<filter id="filter0_d_382_169" x="0" y="0" width="130" height="150" filterUnits="userSpaceOnUse" color-interpolation-filters="sRGB">
<feFlood flood-opacity="0" result="BackgroundImageFix"/>
<feColorMatrix in="SourceAlpha" type="matrix" values="0 0 0 0 0 0 0 0 0 0 0 0 0 0 0 0 0 0 127 0" result="hardAlpha"/>
<feOffset dy="4"/>
<feGaussianBlur stdDeviation="2"/>
<feComposite in2="hardAlpha" operator="out"/>
<feColorMatrix type="matrix" values="0 0 0 0 0 0 0 0 0 0 0 0 0 0 0 0 0 0 0.25 0"/>
<feBlend mode="normal" in2="BackgroundImageFix" result="effect1_dropShadow_382_169"/>
<feBlend mode="normal" in="SourceGraphic" in2="effect1_dropShadow_382_169" result="shape"/>
</filter>
<linearGradient id="paint0_linear_382_169" x1="53.9608" y1="0.0196526" x2="53.9608" y2="100.034" gradientUnits="userSpaceOnUse">
<stop stop-color="#F9AA4B"/>
<stop offset="1" stop-color="#F7931A"/>
</linearGradient>
<clipPath id="clip0_382_169">
<rect width="102" height="102" fill="white" transform="translate(4)"/>
</clipPath>
</defs>
</svg>
