<svg width="500" height="500" viewBox="0 0 500 500" fill="none" xmlns="http://www.w3.org/2000/svg">
<rect width="500" height="500" rx="50" fill="black"/>
<path d="M173.975 287.521V139.719H217.773V287.521C217.773 301.779 214.648 314.035 208.398 324.289C202.148 334.445 193.604 342.258 182.764 347.727C172.021 353.195 159.912 355.93 146.436 355.93C132.471 355.93 120.117 353.586 109.375 348.898C98.6328 344.211 90.1855 337.033 84.0332 327.365C77.8809 317.6 74.8047 305.246 74.8047 290.305H118.896C118.896 298.117 119.971 304.318 122.119 308.908C124.365 313.498 127.539 316.77 131.641 318.723C135.742 320.676 140.674 321.652 146.436 321.652C152.002 321.652 156.836 320.334 160.938 317.697C165.039 315.061 168.213 311.203 170.459 306.125C172.803 301.047 173.975 294.846 173.975 287.521ZM320.752 353H274.316L274.609 318.723H320.752C332.275 318.723 341.992 316.135 349.902 310.959C357.812 305.686 363.77 298.02 367.773 287.961C371.875 277.902 373.926 265.744 373.926 251.486V241.086C373.926 230.148 372.754 220.529 370.41 212.229C368.164 203.928 364.795 196.945 360.303 191.281C355.811 185.617 350.293 181.369 343.75 178.537C337.207 175.607 329.688 174.143 321.191 174.143H273.438V139.719H321.191C335.449 139.719 348.486 142.16 360.303 147.043C372.217 151.828 382.52 158.713 391.211 167.697C399.902 176.682 406.592 187.424 411.279 199.924C416.064 212.326 418.457 226.145 418.457 241.379V251.486C418.457 266.623 416.064 280.441 411.279 292.941C406.592 305.441 399.902 316.184 391.211 325.168C382.617 334.055 372.314 340.939 360.303 345.822C348.389 350.607 335.205 353 320.752 353ZM299.219 139.719V353H255.273V139.719H299.219Z" fill="white"/>
</svg>
