<svg width="120" height="120" viewBox="0 0 120 120" fill="none" xmlns="http://www.w3.org/2000/svg">
<g filter="url(#filter0_d_384_157)">
<path d="M10 20C10 14.4772 14.4772 10 20 10H100C105.523 10 110 14.4772 110 20V100C110 105.523 105.523 110 100 110H20C14.4772 110 10 105.523 10 100V20Z" fill="white"/>
</g>
<path d="M32.4531 77.4643C43.2946 78.2031 45.6116 77.9353 45.6116 80.1295C45.6116 84.5938 30.9799 84.6071 30.9799 80.4688C30.9821 79.3326 31.7143 78.3705 32.4531 77.4643ZM38.692 51.4286C31.4844 51.4286 31.1585 61.3549 38.5246 61.3549C45.7812 61.3549 45.6027 51.4286 38.692 51.4286ZM110 20.7143V99.2857C110 102.127 108.871 104.853 106.862 106.862C104.853 108.871 102.127 110 99.2857 110H20.7143C17.8727 110 15.1475 108.871 13.1381 106.862C11.1288 104.853 10 102.127 10 99.2857V20.7143C10 17.8727 11.1288 15.1475 13.1381 13.1381C15.1475 11.1288 17.8727 10 20.7143 10H99.2857C102.127 10 104.853 11.1288 106.862 13.1381C108.871 15.1475 110 17.8727 110 20.7143ZM59.3304 36.1853C59.3304 39.4196 61.2009 41.2924 64.433 41.2924C67.7232 41.2924 69.596 39.4196 69.596 36.1853C69.596 32.9509 67.7277 31.2054 64.4375 31.2054C61.2054 31.2054 59.3304 32.9554 59.3304 36.1853ZM54.4598 46.3839H43.3996C37.8192 44.9219 25.1942 45.3013 25.1942 56.8192C25.1942 61.0156 27.2924 63.9621 30.0714 65.3259C26.5692 68.5335 24.9107 70.0446 24.9107 72.1875C24.9107 73.721 25.5335 75.1384 27.4062 75.9286C25.4196 77.8036 24.2812 79.1607 24.2812 81.7143C24.2857 86.1942 28.1987 88.7946 38.4643 88.7946C48.3348 88.7946 54.0603 85.1094 54.0603 78.5871C54.0603 70.4018 47.7589 70.7031 32.9062 69.7969L34.7768 66.7991C38.5714 67.8571 51.3371 68.1897 51.3371 57.3281C51.3371 54.7188 50.2589 52.904 49.2388 51.5982L54.4576 51.2009L54.4598 46.3839ZM73.2857 70.9018L70.3839 70.5045C69.5312 70.3906 69.4754 70.2812 69.4754 69.3683V45.8304H57.7344L57.1116 50.4219C60.6272 51.6607 60.9062 51.5067 60.9062 52.692V69.375C60.9062 70.6295 60.8371 70.3973 57.1116 70.9085V75.3862H73.2768L73.2857 70.9018ZM95.7143 73.1696L94.1808 68.1763C85.0446 71.6071 85.7321 65.4062 85.7321 64.442V50.8884H94.1808V45.2165H86.1853C85.5446 45.2165 85.7388 45.779 85.7388 36.5938H80.3415C79.7188 42.7768 77.7344 45.2723 72.7522 45.8393V50.8884C77.3214 50.8884 77.1763 50.6987 77.1763 51.4554V66.3147C77.1763 72.7254 79.7277 75.4464 86.4777 75.4464C89.7031 75.4464 93.2746 74.3683 95.7143 73.1696Z" fill="black"/>
<defs>
<filter id="filter0_d_384_157" x="0" y="0" width="120" height="120" filterUnits="userSpaceOnUse" color-interpolation-filters="sRGB">
<feFlood flood-opacity="0" result="BackgroundImageFix"/>
<feColorMatrix in="SourceAlpha" type="matrix" values="0 0 0 0 0 0 0 0 0 0 0 0 0 0 0 0 0 0 127 0" result="hardAlpha"/>
<feOffset/>
<feGaussianBlur stdDeviation="5"/>
<feComposite in2="hardAlpha" operator="out"/>
<feColorMatrix type="matrix" values="0 0 0 0 0 0 0 0 0 0 0 0 0 0 0 0 0 0 0.25 0"/>
<feBlend mode="normal" in2="BackgroundImageFix" result="effect1_dropShadow_384_157"/>
<feBlend mode="normal" in="SourceGraphic" in2="effect1_dropShadow_384_157" result="shape"/>
</filter>
</defs>
</svg>
