<svg width="108" height="103" viewBox="0 0 108 103" fill="none" xmlns="http://www.w3.org/2000/svg">
<g filter="url(#filter0_d_307_155)">
<path d="M86.2199 30.7914C85.1557 30.4015 84.0824 30.0404 83.0012 29.7082C83.1828 28.9157 83.35 28.1329 83.4984 27.3637C85.9352 14.7337 84.3422 4.55876 78.9012 1.20866C73.6844 -2.00295 65.1527 1.34589 56.5363 9.35283C55.6871 10.1434 54.8568 10.9567 54.0461 11.792C53.5034 11.2365 52.9511 10.6918 52.3895 10.1582C43.359 1.59698 34.3074 -2.0113 28.8723 1.34839C23.6602 4.57002 22.1168 14.1352 24.3105 26.105C24.5288 27.2904 24.7752 28.4698 25.0496 29.6419C23.7684 30.0306 22.532 30.4444 21.3488 30.8848C10.7613 34.8264 4 41.0031 4 47.4101C4 54.0273 11.2586 60.6645 22.2859 64.689C23.1799 65.0139 24.0814 65.315 24.9895 65.592C24.6945 66.8544 24.4327 68.1254 24.2043 69.4034C22.1129 81.1654 23.7461 90.5046 28.9441 93.7058C34.3129 97.0116 43.3238 93.614 52.0977 85.4244C52.8091 84.7586 53.5049 84.0739 54.1844 83.371C55.0623 84.2755 55.9637 85.1537 56.8875 86.0046C65.3867 93.8134 73.7805 96.9666 78.9734 93.7566C84.3371 90.4412 86.0805 80.4084 83.8172 68.2022C83.6389 67.2459 83.439 66.2944 83.2176 65.3484C83.8504 65.1482 84.4715 64.9422 85.077 64.7278C96.541 60.6724 104 54.1157 104 47.4101C104 40.9798 97.0203 34.7613 86.2199 30.7914ZM83.7336 60.3984C83.1867 60.5915 82.6258 60.7779 82.0539 60.9594C80.7883 56.6812 79.0805 52.1324 76.9902 47.4322C78.9848 42.8442 80.627 38.3533 81.857 34.1031C82.8801 34.4193 83.8727 34.7526 84.8297 35.1042C94.0836 38.506 99.7281 43.5349 99.7281 47.4101C99.7281 51.5376 93.632 56.896 83.7336 60.3984ZM79.6266 69.0881C80.6273 74.4853 80.7699 79.3653 80.107 83.1804C79.5117 86.6085 78.3141 88.8938 76.8328 89.8093C73.6816 91.7571 66.9422 89.2253 59.6738 82.5469C58.8146 81.7558 57.9761 80.9393 57.1594 80.0985C59.9773 76.8081 62.7934 72.9829 65.5418 68.7344C70.3762 68.2764 74.9434 67.5273 79.0852 66.505C79.2847 67.3614 79.4652 68.2226 79.6266 69.0881ZM38.0922 89.4727C35.0133 90.6334 32.5609 90.6668 31.0785 89.7542C27.9242 87.8118 26.6129 80.3129 28.4016 70.2543C28.6142 69.0657 28.8576 67.8836 29.1316 66.7094C33.2277 67.6771 37.7617 68.3728 42.6074 68.7924C45.3746 72.9495 48.2719 76.7705 51.1918 80.1164C50.5713 80.7576 49.936 81.3823 49.2867 81.99C45.4066 85.6112 41.5187 88.1805 38.0922 89.4727ZM23.668 60.3729C18.7918 58.5932 14.7648 56.2804 12.0047 53.7566C9.52422 51.4888 8.27227 49.2369 8.27227 47.4101C8.27227 43.5219 13.7008 38.5627 22.7551 35.1922C23.8539 34.7834 25.0039 34.3976 26.1973 34.0356C27.4488 38.3817 29.0902 42.9259 31.0711 47.521C29.0645 52.1841 27.3996 56.8009 26.1359 61.1983C25.3071 60.9448 24.4842 60.6696 23.668 60.3729ZM28.5031 25.2286C26.6238 14.9736 27.8719 7.23775 31.0129 5.29618C34.3582 3.22823 41.7559 6.17666 49.5531 13.5692C50.0616 14.0524 50.5618 14.5453 51.0535 15.0478C48.148 18.3791 45.2773 22.1718 42.5348 26.3043C37.8316 26.7698 33.3297 27.5172 29.1906 28.5187C28.9356 27.4285 28.7064 26.3312 28.5031 25.2286ZM71.6387 36.6019C70.661 34.7988 69.6471 33.0184 68.5977 31.2619C71.7883 31.6928 74.8453 32.2646 77.716 32.9636C76.8543 35.9133 75.7801 38.9969 74.5156 42.1585C73.5914 40.286 72.6322 38.4335 71.6387 36.6019ZM54.048 18.3078C56.0184 20.5872 57.9918 23.1319 59.9328 25.8931C55.9953 25.6945 52.0512 25.6937 48.1137 25.8906C50.0566 23.1549 52.0469 20.6135 54.048 18.3078ZM36.3445 36.6332C35.3634 38.45 34.4221 40.291 33.5215 42.1547C32.2777 39.0044 31.2133 35.9066 30.3441 32.9153C33.1973 32.2337 36.2398 31.6765 39.4102 31.2536C38.349 33.0208 37.3268 34.8148 36.3445 36.6332ZM39.5012 63.8911C36.2258 63.5007 33.1375 62.9722 30.2852 62.3091C31.168 59.2643 32.2559 56.1006 33.5266 52.8828C34.4308 54.7478 35.376 56.59 36.3613 58.4076C37.3746 60.2762 38.4238 62.1064 39.5012 63.8911ZM54.166 76.8335C52.141 74.5011 50.1215 71.9206 48.1492 69.1452C50.0641 69.2253 52.016 69.2662 54 69.2662C56.0383 69.2662 58.0531 69.2174 60.0363 69.1231C58.0891 71.9485 56.123 74.5328 54.166 76.8335ZM74.5559 52.7184C75.8926 55.9718 77.0191 59.1187 77.9137 62.1114C75.0144 62.8179 71.884 63.3868 68.5855 63.8093C69.6425 62.0202 70.666 60.2089 71.6555 58.3763C72.6615 56.5136 73.6285 54.6271 74.5559 52.7184ZM67.9551 56.0973C66.4403 58.907 64.8404 61.6634 63.1578 64.362C60.11 64.5925 57.0555 64.707 54 64.7053C50.8879 64.7053 47.8609 64.6018 44.9461 64.4C43.2196 61.7075 41.5892 58.9464 40.0582 56.1223C38.5344 53.3132 37.1116 50.4434 35.7918 47.5189C37.1082 44.5938 38.5272 41.7226 40.0457 38.9114C41.5637 36.0994 43.1807 33.3505 44.8941 30.6696C47.868 30.4294 50.9176 30.3043 53.9996 30.3043C57.0957 30.3043 60.1496 30.4306 63.1227 30.6725C64.8188 33.3494 66.4259 36.0893 67.941 38.8872C69.4646 41.6922 70.9024 44.5494 72.252 47.4543C70.9162 50.3888 69.483 53.2717 67.9551 56.0973ZM76.7676 5.1602C80.116 7.22231 81.4184 15.5379 79.3145 26.4428C79.1801 27.1385 79.0293 27.8472 78.8652 28.5658C74.716 27.5431 70.2109 26.7827 65.4941 26.3102C62.7465 22.1321 59.8992 18.3337 57.041 15.0453C57.7901 14.2743 58.557 13.5233 59.341 12.793C66.7238 5.93308 73.6238 3.22447 76.7676 5.1602ZM54 37.8753C58.9316 37.8753 62.9297 42.1443 62.9297 47.4101C62.9297 52.6759 58.9316 56.9448 54 56.9448C49.0684 56.9448 45.0703 52.6759 45.0703 47.4101C45.0703 42.1443 49.0684 37.8753 54 37.8753Z" fill="#00D8FF"/>
</g>
<defs>
<filter id="filter0_d_307_155" x="0" y="0" width="108" height="103" filterUnits="userSpaceOnUse" color-interpolation-filters="sRGB">
<feFlood flood-opacity="0" result="BackgroundImageFix"/>
<feColorMatrix in="SourceAlpha" type="matrix" values="0 0 0 0 0 0 0 0 0 0 0 0 0 0 0 0 0 0 127 0" result="hardAlpha"/>
<feOffset dy="4"/>
<feGaussianBlur stdDeviation="2"/>
<feComposite in2="hardAlpha" operator="out"/>
<feColorMatrix type="matrix" values="0 0 0 0 0 0 0 0 0 0 0 0 0 0 0 0 0 0 0.25 0"/>
<feBlend mode="normal" in2="BackgroundImageFix" result="effect1_dropShadow_307_155"/>
<feBlend mode="normal" in="SourceGraphic" in2="effect1_dropShadow_307_155" result="shape"/>
</filter>
</defs>
</svg>
