<svg width="74" height="88" viewBox="0 0 74 88" fill="none" xmlns="http://www.w3.org/2000/svg">
<path d="M37.5343 52.4374C36.0312 53.128 34.3843 54.028 31.0874 55.8374C29.8374 56.5405 28.5312 57.2437 27.3155 57.9062C27.2312 57.8218 27.1437 57.7155 27.0593 57.628C20.5374 50.6593 8.47491 45.7374 8.98741 36.378C9.17804 32.9687 10.3499 24.0187 32.153 13.1499C50.0968 4.30617 64.3749 6.75617 66.8405 12.1905C70.3843 19.9374 59.1874 34.353 40.6562 36.4437C38.6052 36.8597 36.487 36.8094 34.458 36.2967C32.4291 35.7839 30.5413 34.8217 28.9343 33.4812C27.953 32.4155 27.8062 32.353 27.4437 32.5655C26.8468 32.878 27.2312 33.8437 27.4437 34.3968C28.1505 35.6766 29.1068 36.8017 30.256 37.7056C31.4052 38.6095 32.724 39.2738 34.1343 39.6593C41.4268 41.2355 49.0302 40.4824 55.8718 37.5062C67.103 33.1593 75.8718 21.0749 73.303 10.9437C70.7249 0.671794 53.6749 -2.71571 37.5437 3.01554C27.4414 6.4199 18.1078 11.779 10.0749 18.7874C1.18741 27.0999 -0.218837 34.3249 0.356163 37.3499C2.42491 48.0905 17.2312 55.0812 23.1687 60.2593C22.8562 60.4312 22.5937 60.5718 22.3593 60.7062C19.3968 62.178 8.10304 68.0812 5.28741 74.3249C2.09054 81.3999 5.79991 86.4718 8.24991 87.153C11.9421 88.0374 15.8182 87.7467 19.3371 86.3214C22.8561 84.8962 25.842 82.4075 27.878 79.203C29.607 76.5458 30.6687 73.5103 30.9729 70.3546C31.277 67.199 30.8146 64.0166 29.6249 61.078C30.3268 60.5182 31.0754 60.0195 31.8624 59.5874C33.3749 58.6937 34.8155 57.8124 36.0937 57.1312C40.4698 55.0814 45.2456 54.0259 50.078 54.0405C60.2218 55.2343 62.2249 61.5624 61.8405 64.228C61.6607 65.1738 61.2804 66.0701 60.7252 66.8565C60.17 67.643 59.4528 68.3014 58.6218 68.7874C57.9187 69.2343 57.6843 69.3843 57.7468 69.703C57.8312 70.1718 58.1718 70.1499 58.7687 70.0655C60.2927 69.5839 61.6354 68.6525 62.6203 67.3937C63.6053 66.1349 64.1864 64.6076 64.2874 63.0124C64.5999 56.7624 58.6405 49.9062 48.0905 49.9687C44.9315 49.9741 41.8041 50.5973 38.8843 51.803C38.4155 51.9968 37.9603 52.2051 37.5187 52.428L37.5343 52.4374ZM22.4562 76.9343C19.0874 80.5999 14.3999 81.9843 12.3749 80.8124C10.1874 79.5624 11.053 74.1405 15.1874 70.2624C17.636 68.0562 20.2826 66.0801 23.0937 64.3593C23.5843 64.0468 24.3093 63.6343 25.1812 63.1093L25.4155 62.9812L25.928 62.6687C26.6654 65.1409 26.7325 67.7646 26.1224 70.2713C25.5124 72.7779 24.2471 75.0774 22.4562 76.9343V76.9343Z" fill="#CD6799"/>
</svg>
