<svg width="120" height="120" viewBox="0 0 120 120" fill="none" xmlns="http://www.w3.org/2000/svg">
<g filter="url(#filter0_d_384_154)">
<path d="M10 20C10 14.4772 14.4772 10 20 10H100C105.523 10 110 14.4772 110 20V100C110 105.523 105.523 110 100 110H20C14.4772 110 10 105.523 10 100V20Z" fill="white"/>
</g>
<path d="M14.6875 10C12.0917 10 10 12.0917 10 14.6875V105.312C10 107.908 12.0917 110 14.6875 110H105.312C107.908 110 110 107.908 110 105.312V14.6875C110 12.0917 107.908 10 105.312 10H14.6875ZM87.0333 50.625C89.5833 50.625 91.8417 50.7792 93.8125 51.0875C95.6714 51.366 97.4955 51.8409 99.2542 52.5042V62.7458C98.41 62.162 97.513 61.6584 96.575 61.2417C95.6076 60.8064 94.609 60.4443 93.5875 60.1583C91.6525 59.6191 89.6545 59.3389 87.6458 59.325C86.3958 59.325 85.2583 59.4417 84.2333 59.6833C83.3198 59.8787 82.4434 60.2191 81.6375 60.6917C80.9292 61.125 80.3875 61.6458 80 62.25C79.6103 62.8589 79.4075 63.5687 79.4167 64.2917C79.4167 65.1083 79.6375 65.8458 80.0667 66.4958C80.5 67.1458 81.1167 67.7625 81.9125 68.3458C82.7083 68.9292 83.675 69.4958 84.8125 70.0542C85.95 70.6167 87.2375 71.1958 88.6708 71.7875C90.6292 72.6083 92.3875 73.4833 93.9458 74.4042C95.5042 75.3292 96.8417 76.375 97.9583 77.5417C99.075 78.7042 99.925 80.0333 100.517 81.5292C101.108 83.025 101.408 84.7625 101.408 86.75C101.408 89.4875 100.887 91.7917 99.8542 93.65C98.8446 95.4828 97.3956 97.0362 95.6375 98.1708C93.7424 99.3725 91.642 100.214 89.4417 100.654C87.0833 101.154 84.5958 101.404 81.9833 101.404C79.4121 101.415 76.8454 101.187 74.3167 100.721C72.1289 100.342 70.007 99.6506 68.0167 98.6667V87.7083C71.7824 90.913 76.5594 92.6839 81.5042 92.7083C82.8917 92.7083 84.1042 92.5833 85.1375 92.3333C86.175 92.0833 87.0375 91.7333 87.7333 91.2917C88.425 90.8417 88.9417 90.3167 89.2875 89.7083C89.6697 89 89.8436 88.198 89.7891 87.395C89.7345 86.592 89.4537 85.8209 88.9792 85.1708C88.3601 84.3516 87.6029 83.6466 86.7417 83.0875C85.6736 82.3795 84.5489 81.7607 83.3792 81.2375C81.9927 80.6043 80.5938 79.9986 79.1833 79.4208C75.3583 77.825 72.5083 75.8708 70.6292 73.5667C68.7542 71.2625 67.8125 68.475 67.8125 65.2125C67.8125 62.6542 68.325 60.4583 69.35 58.6208C70.375 56.7833 71.7667 55.2708 73.5333 54.0833C75.4019 52.8506 77.4764 51.963 79.6583 51.4625C82.0749 50.8927 84.5505 50.6116 87.0333 50.625ZM24.0625 51.4083H63.9083V60.4333H49.6083V100.625H38.2875V60.4333H24.0625V51.4083Z" fill="#3178C6"/>
<defs>
<filter id="filter0_d_384_154" x="0" y="0" width="120" height="120" filterUnits="userSpaceOnUse" color-interpolation-filters="sRGB">
<feFlood flood-opacity="0" result="BackgroundImageFix"/>
<feColorMatrix in="SourceAlpha" type="matrix" values="0 0 0 0 0 0 0 0 0 0 0 0 0 0 0 0 0 0 127 0" result="hardAlpha"/>
<feOffset/>
<feGaussianBlur stdDeviation="5"/>
<feComposite in2="hardAlpha" operator="out"/>
<feColorMatrix type="matrix" values="0 0 0 0 0 0 0 0 0 0 0 0 0 0 0 0 0 0 0.25 0"/>
<feBlend mode="normal" in2="BackgroundImageFix" result="effect1_dropShadow_384_154"/>
<feBlend mode="normal" in="SourceGraphic" in2="effect1_dropShadow_384_154" result="shape"/>
</filter>
</defs>
</svg>
