<svg width="2749" height="2750" viewBox="0 0 2749 2750" fill="none" xmlns="http://www.w3.org/2000/svg">
<circle cx="1375" cy="1375" r="750" fill="url(#paint0_radial_689_96)"/>
<path d="M90.0333 1432.04C69.0238 1427.48 69.0238 1397.52 90.0333 1392.96L444.507 1316C456.972 1313.3 468.75 1322.79 468.75 1335.55V1489.45C468.75 1502.21 456.972 1511.7 444.507 1509L90.0333 1432.04Z" fill="#FFDF39"/>
<path d="M648.709 2531.85C634.255 2547.76 608.303 2532.78 614.857 2512.3L725.451 2166.82C729.34 2154.67 743.453 2149.22 754.499 2155.6L887.804 2232.56C898.85 2238.94 901.185 2253.89 892.609 2263.33L648.709 2531.85Z" fill="#FFDF39"/>
<path d="M2089.19 2519.3C2095.75 2539.78 2069.8 2554.76 2055.34 2538.85L1811.44 2270.33C1802.87 2260.89 1805.2 2245.94 1816.25 2239.56L1949.55 2162.6C1960.6 2156.22 1974.71 2161.67 1978.6 2173.82L2089.19 2519.3Z" fill="#FFDF39"/>
<path d="M2658.97 1392.96C2679.98 1397.52 2679.98 1427.48 2658.97 1432.04L2304.49 1509C2292.03 1511.7 2280.25 1502.21 2280.25 1489.45V1335.55C2280.25 1322.79 2292.03 1313.3 2304.49 1316L2658.97 1392.96Z" fill="#FFDF39"/>
<path d="M1354.96 90.0333C1359.52 69.0238 1389.48 69.0238 1394.04 90.0333L1471 444.507C1473.7 456.972 1464.21 468.75 1451.45 468.75H1297.55C1284.79 468.75 1275.3 456.972 1278 444.507L1354.96 90.0333Z" fill="#FFDF39"/>
<path d="M1394.04 2659.97C1389.48 2680.98 1359.52 2680.98 1354.96 2659.97L1278 2305.49C1275.3 2293.03 1284.79 2281.25 1297.55 2281.25H1451.45C1464.21 2281.25 1473.7 2293.03 1471 2305.49L1394.04 2659.97Z" fill="#FFDF39"/>
<path d="M650.857 230.492C644.303 210.018 670.255 195.034 684.709 210.948L928.609 479.466C937.185 488.908 934.851 503.856 923.804 510.234L790.499 587.198C779.453 593.575 765.34 588.123 761.451 575.975L650.857 230.492Z" fill="#FFDF39"/>
<path d="M2046.34 210.947C2060.8 195.034 2086.75 210.017 2080.19 230.492L1969.6 575.974C1965.71 588.122 1951.6 593.575 1940.55 587.197L1807.25 510.234C1796.2 503.856 1793.87 488.907 1802.44 479.466L2046.34 210.947Z" fill="#FFDF39"/>
<path d="M166.947 802.709C151.034 788.255 166.017 762.303 186.492 768.857L531.974 879.451C544.122 883.34 549.575 897.453 543.197 908.499L466.234 1041.8C459.856 1052.85 444.907 1055.18 435.466 1046.61L166.947 802.709Z" fill="#FFDF39"/>
<path d="M230.492 1971.19C210.017 1977.75 195.034 1951.8 210.947 1937.34L479.466 1693.44C488.907 1684.87 503.856 1687.2 510.233 1698.25L587.197 1831.55C593.575 1842.6 588.122 1856.71 575.974 1860.6L230.492 1971.19Z" fill="#FFDF39"/>
<path d="M2538.85 2039.34C2554.76 2053.8 2539.78 2079.75 2519.3 2073.19L2173.82 1962.6C2161.67 1958.71 2156.22 1944.6 2162.6 1933.55L2239.56 1800.25C2245.94 1789.2 2260.89 1786.87 2270.33 1795.44L2538.85 2039.34Z" fill="#FFDF39"/>
<path d="M2519.3 713.857C2539.78 707.303 2554.76 733.255 2538.85 747.709L2270.33 991.609C2260.89 1000.18 2245.94 997.851 2239.56 986.804L2162.6 853.499C2156.22 842.453 2161.67 828.34 2173.82 824.451L2519.3 713.857Z" fill="#FFDF39"/>
<defs>
<radialGradient id="paint0_radial_689_96" cx="0" cy="0" r="1" gradientUnits="userSpaceOnUse" gradientTransform="translate(1375 1375) rotate(90) scale(750)">
<stop offset="0.234375" stop-color="#FFF0A0"/>
<stop offset="1" stop-color="#FFDF39"/>
</radialGradient>
</defs>
</svg>
