<svg width="589" height="576" viewBox="0 0 589 576" fill="none" xmlns="http://www.w3.org/2000/svg">
<path fill-rule="evenodd" clip-rule="evenodd" d="M280.392 7.28212C283.173 -2.35321 296.826 -2.3532 299.607 7.28213L329.613 111.227C331.459 117.621 326.661 124 320.006 124H259.993C253.338 124 248.54 117.621 250.386 111.227L280.392 7.28212ZM415 284C415 353.036 359.035 409 290 409C220.964 409 165 353.036 165 284C165 214.965 220.964 159 290 159C359.035 159 415 214.965 415 284ZM504.036 83.6831C508.883 74.903 499.229 65.2493 490.449 70.0957L395.732 122.378C389.905 125.594 388.787 133.498 393.493 138.204L435.928 180.639C440.634 185.345 448.538 184.227 451.754 178.4L504.036 83.6831ZM280.392 568.718L250.386 464.774C248.54 458.38 253.338 452 259.993 452H320.006C326.661 452 331.459 458.38 329.613 464.774L299.607 568.718C296.826 578.353 283.173 578.353 280.392 568.718ZM490.449 498.037C499.229 502.883 508.883 493.229 504.037 484.449L451.754 389.732C448.538 383.905 440.634 382.787 435.929 387.493L393.493 429.928C388.787 434.634 389.905 442.538 395.732 445.754L490.449 498.037ZM87.6827 498.037C78.9027 502.883 69.249 493.229 74.0954 484.449L126.378 389.732C129.594 383.905 137.498 382.787 142.204 387.493L184.639 429.928C189.345 434.634 188.227 442.538 182.4 445.754L87.6827 498.037ZM581.718 283.608C591.353 280.826 591.353 267.174 581.718 264.392L477.773 234.386C471.379 232.54 465 237.339 465 243.994V304.006C465 310.661 471.379 315.46 477.773 313.614L581.718 283.608ZM7.28151 283.608C-2.35382 280.826 -2.35381 267.174 7.28152 264.392L111.226 234.386C117.62 232.54 124 237.339 124 243.994V304.006C124 310.661 117.62 315.46 111.226 313.614L7.28151 283.608ZM99.4884 88.9071C90.7143 84.0798 81.0792 93.715 85.9065 102.489L135.53 192.683C138.741 198.519 146.652 199.644 151.362 194.934L191.933 154.363C196.643 149.653 195.519 141.741 189.683 138.53L99.4884 88.9071Z" fill="#FFD600"/>
</svg>
